<?xml version="1.0" encoding="UTF-8" standalone="no"?><!DOCTYPE svg PUBLIC "-//W3C//DTD SVG 1.1//EN" "http://www.w3.org/Graphics/SVG/1.1/DTD/svg11.dtd"><!-- Generated by graphviz version 2.40.1 (20161225.0304)
 --><!-- Title: g Pages: 1 --><svg xmlns="http://www.w3.org/2000/svg" xmlns:xlink="http://www.w3.org/1999/xlink" width="470pt" height="1691pt" viewBox="0.00 0.00 470.06 1691.00">
<g id="graph0" class="graph" transform="scale(1 1) rotate(0) translate(4 1687)">
<title>g</title>
<polygon fill="#ffffff" stroke="transparent" points="-4,4 -4,-1687 466.0589,-1687 466.0589,4 -4,4"/>
<!-- 1 -->
<g id="node1" class="node">
<title>1</title>
<ellipse fill="none" stroke="#000000" cx="361.4465" cy="-72" rx="41.6901" ry="18"/>
<text text-anchor="middle" x="361.4465" y="-67.8" font-family="Times,serif" font-size="14.00" fill="#000000">General</text>
</g>
<!-- 2 -->
<g id="node2" class="node">
<title>2</title>
<ellipse fill="none" stroke="#000000" cx="361.4465" cy="-180" rx="41.6901" ry="18"/>
<text text-anchor="middle" x="361.4465" y="-175.8" font-family="Times,serif" font-size="14.00" fill="#000000">General</text>
</g>
<!-- 3 -->
<g id="node3" class="node">
<title>3</title>
<ellipse fill="none" stroke="#000000" cx="361.4465" cy="-288" rx="33.043" ry="18"/>
<text text-anchor="middle" x="361.4465" y="-283.8" font-family="Times,serif" font-size="14.00" fill="#000000">Other</text>
</g>
<!-- 4 -->
<g id="node4" class="node">
<title>4</title>
<ellipse fill="none" stroke="#000000" cx="361.4465" cy="-504" rx="33.043" ry="18"/>
<text text-anchor="middle" x="361.4465" y="-499.8" font-family="Times,serif" font-size="14.00" fill="#000000">Other</text>
</g>
<!-- 5 -->
<g id="node5" class="node">
<title>5</title>
<ellipse fill="none" stroke="#000000" cx="361.4465" cy="-828" rx="41.6901" ry="18"/>
<text text-anchor="middle" x="361.4465" y="-823.8" font-family="Times,serif" font-size="14.00" fill="#000000">General</text>
</g>
<!-- Other -->
<g id="node6" class="node">
<title>Other</title>
<ellipse fill="none" stroke="#000000" cx="112.417" cy="-747" rx="33.043" ry="18"/>
<text text-anchor="middle" x="112.417" y="-742.8" font-family="Times,serif" font-size="14.00" fill="#000000">Other</text>
</g>
<!-- Weaponry &amp; Explosives -->
<g id="node7" class="node">
<title>Weaponry &amp; Explosives</title>
<ellipse fill="none" stroke="#000000" cx="112.417" cy="-801" rx="105.9459" ry="18"/>
<text text-anchor="middle" x="112.417" y="-796.8" font-family="Times,serif" font-size="14.00" fill="#000000">Weaponry &amp; Explosives</text>
</g>
<!-- Transportation/Stealth -->
<g id="node8" class="node">
<title>Transportation/Stealth</title>
<ellipse fill="none" stroke="#000000" cx="112.417" cy="-855" rx="97.2857" ry="18"/>
<text text-anchor="middle" x="112.417" y="-850.8" font-family="Times,serif" font-size="14.00" fill="#000000">Transportation/Stealth</text>
</g>
<!-- PGP/GPG -->
<g id="node9" class="node">
<title>PGP/GPG</title>
<ellipse fill="none" stroke="#000000" cx="112.417" cy="-909" rx="50.9793" ry="18"/>
<text text-anchor="middle" x="112.417" y="-904.8" font-family="Times,serif" font-size="14.00" fill="#000000">PGP/GPG</text>
</g>
<!-- SEO -->
<g id="node10" class="node">
<title>SEO</title>
<ellipse fill="none" stroke="#000000" cx="112.417" cy="-963" rx="29.0529" ry="18"/>
<text text-anchor="middle" x="112.417" y="-958.8" font-family="Times,serif" font-size="14.00" fill="#000000">SEO</text>
</g>
<!-- Resources -->
<g id="node11" class="node">
<title>Resources</title>
<ellipse fill="none" stroke="#000000" cx="112.417" cy="-1017" rx="50.9405" ry="18"/>
<text text-anchor="middle" x="112.417" y="-1012.8" font-family="Times,serif" font-size="14.00" fill="#000000">Resources</text>
</g>
<!-- Identity Documents -->
<g id="node12" class="node">
<title>Identity Documents</title>
<ellipse fill="none" stroke="#000000" cx="361.4465" cy="-1044" rx="87.4405" ry="18"/>
<text text-anchor="middle" x="361.4465" y="-1039.8" font-family="Times,serif" font-size="14.00" fill="#000000">Identity Documents</text>
</g>
<!-- Resources&#45;&gt;Identity Documents -->
<g id="edge1" class="edge">
<title>Resources-&gt;Identity Documents</title>
<path fill="none" stroke="#000000" d="M161.0236,-1022.27C193.1177,-1025.7496 236.0921,-1030.409 274.0159,-1034.5207"/>
<polygon fill="#000000" stroke="#000000" points="273.7313,-1038.0103 284.0503,-1035.6086 274.4859,-1031.0511 273.7313,-1038.0103"/>
</g>
<!-- Contact Lists -->
<g id="node13" class="node">
<title>Contact Lists</title>
<ellipse fill="none" stroke="#000000" cx="361.4465" cy="-990" rx="62.0341" ry="18"/>
<text text-anchor="middle" x="361.4465" y="-985.8" font-family="Times,serif" font-size="14.00" fill="#000000">Contact Lists</text>
</g>
<!-- Resources&#45;&gt;Contact Lists -->
<g id="edge2" class="edge">
<title>Resources-&gt;Contact Lists</title>
<path fill="none" stroke="#000000" d="M161.0236,-1011.73C198.5532,-1007.661 250.9604,-1001.979 292.7723,-997.4457"/>
<polygon fill="#000000" stroke="#000000" points="293.3199,-1000.9069 302.8844,-996.3494 292.5653,-993.9477 293.3199,-1000.9069"/>
</g>
<!-- Modifying Credit -->
<g id="node14" class="node">
<title>Modifying Credit</title>
<ellipse fill="none" stroke="#000000" cx="112.417" cy="-1071" rx="78.7938" ry="18"/>
<text text-anchor="middle" x="112.417" y="-1066.8" font-family="Times,serif" font-size="14.00" fill="#000000">Modifying Credit</text>
</g>
<!-- Malware Authorship -->
<g id="node15" class="node">
<title>Malware Authorship</title>
<ellipse fill="none" stroke="#000000" cx="112.417" cy="-1125" rx="91.4329" ry="18"/>
<text text-anchor="middle" x="112.417" y="-1120.8" font-family="Times,serif" font-size="14.00" fill="#000000">Malware Authorship</text>
</g>
<!-- Lockpicking -->
<g id="node16" class="node">
<title>Lockpicking</title>
<ellipse fill="none" stroke="#000000" cx="112.417" cy="-1179" rx="59.6955" ry="18"/>
<text text-anchor="middle" x="112.417" y="-1174.8" font-family="Times,serif" font-size="14.00" fill="#000000">Lockpicking</text>
</g>
<!-- Hacking -->
<g id="node17" class="node">
<title>Hacking</title>
<ellipse fill="none" stroke="#000000" cx="112.417" cy="-693" rx="43.5022" ry="18"/>
<text text-anchor="middle" x="112.417" y="-688.8" font-family="Times,serif" font-size="14.00" fill="#000000">Hacking</text>
</g>
<!-- Hacking&#45;&gt;5 -->
<g id="edge8" class="edge">
<title>Hacking-&gt;5</title>
<path fill="none" stroke="#000000" d="M156.2765,-694.4671C178.9486,-697.3007 205.7814,-704.142 224.8341,-720 255.1135,-745.2023 230.8908,-775.3992 260.8341,-801 274.5658,-812.7403 292.9008,-819.4293 310.1557,-823.2216"/>
<polygon fill="#000000" stroke="#000000" points="309.6673,-826.6916 320.1473,-825.136 310.9846,-819.8167 309.6673,-826.6916"/>
</g>
<!-- Phreaking -->
<g id="node18" class="node">
<title>Phreaking</title>
<ellipse fill="none" stroke="#000000" cx="361.4465" cy="-774" rx="50.3819" ry="18"/>
<text text-anchor="middle" x="361.4465" y="-769.8" font-family="Times,serif" font-size="14.00" fill="#000000">Phreaking</text>
</g>
<!-- Hacking&#45;&gt;Phreaking -->
<g id="edge3" class="edge">
<title>Hacking-&gt;Phreaking</title>
<path fill="none" stroke="#000000" d="M154.0936,-698.8324C175.8869,-702.9037 202.5839,-709.5357 224.8341,-720 242.9325,-728.5117 242.8499,-738.2496 260.8341,-747 275.1083,-753.9453 291.4219,-759.302 306.6984,-763.3431"/>
<polygon fill="#000000" stroke="#000000" points="306.0048,-766.7774 316.5556,-765.8121 307.7057,-759.9872 306.0048,-766.7774"/>
</g>
<!-- Malware Supply Chain -->
<g id="node19" class="node">
<title>Malware Supply Chain</title>
<ellipse fill="none" stroke="#000000" cx="361.4465" cy="-720" rx="100.7249" ry="18"/>
<text text-anchor="middle" x="361.4465" y="-715.8" font-family="Times,serif" font-size="14.00" fill="#000000">Malware Supply Chain</text>
</g>
<!-- Hacking&#45;&gt;Malware Supply Chain -->
<g id="edge4" class="edge">
<title>Hacking-&gt;Malware Supply Chain</title>
<path fill="none" stroke="#000000" d="M154.9438,-697.6108C185.1665,-700.8876 226.9901,-705.4221 265.0989,-709.5539"/>
<polygon fill="#000000" stroke="#000000" points="264.8963,-713.0524 275.2154,-710.6507 265.6509,-706.0932 264.8963,-713.0524"/>
</g>
<!-- Wireless Networks -->
<g id="node20" class="node">
<title>Wireless Networks</title>
<ellipse fill="none" stroke="#000000" cx="361.4465" cy="-666" rx="84.5468" ry="18"/>
<text text-anchor="middle" x="361.4465" y="-661.8" font-family="Times,serif" font-size="14.00" fill="#000000">Wireless Networks</text>
</g>
<!-- Hacking&#45;&gt;Wireless Networks -->
<g id="edge5" class="edge">
<title>Hacking-&gt;Wireless Networks</title>
<path fill="none" stroke="#000000" d="M154.9438,-688.3892C188.0544,-684.7993 235.0891,-679.6998 275.9084,-675.2741"/>
<polygon fill="#000000" stroke="#000000" points="276.3028,-678.752 285.8673,-674.1944 275.5482,-671.7927 276.3028,-678.752"/>
</g>
<!-- Mobile -->
<g id="node21" class="node">
<title>Mobile</title>
<ellipse fill="none" stroke="#000000" cx="361.4465" cy="-612" rx="38.8632" ry="18"/>
<text text-anchor="middle" x="361.4465" y="-607.8" font-family="Times,serif" font-size="14.00" fill="#000000">Mobile</text>
</g>
<!-- Hacking&#45;&gt;Mobile -->
<g id="edge6" class="edge">
<title>Hacking-&gt;Mobile</title>
<path fill="none" stroke="#000000" d="M144.2785,-680.4977C174.1479,-668.9948 220.1721,-651.8266 260.8341,-639 279.0008,-633.2694 299.2503,-627.6838 316.7935,-623.094"/>
<polygon fill="#000000" stroke="#000000" points="317.9685,-626.4053 326.7737,-620.513 316.2159,-619.6282 317.9685,-626.4053"/>
</g>
<!-- Website -->
<g id="node22" class="node">
<title>Website</title>
<ellipse fill="none" stroke="#000000" cx="361.4465" cy="-558" rx="42.8538" ry="18"/>
<text text-anchor="middle" x="361.4465" y="-553.8" font-family="Times,serif" font-size="14.00" fill="#000000">Website</text>
</g>
<!-- Hacking&#45;&gt;Website -->
<g id="edge7" class="edge">
<title>Hacking-&gt;Website</title>
<path fill="none" stroke="#000000" d="M130.6517,-676.2384C157.3089,-652.5919 209.363,-609.586 260.8341,-585 276.7811,-577.3827 295.2135,-571.6466 311.9103,-567.4654"/>
<polygon fill="#000000" stroke="#000000" points="313.123,-570.7749 322.0444,-565.0601 311.5064,-563.9641 313.123,-570.7749"/>
</g>
<!-- Fraud -->
<g id="node23" class="node">
<title>Fraud</title>
<ellipse fill="none" stroke="#000000" cx="112.417" cy="-1233" rx="33.6266" ry="18"/>
<text text-anchor="middle" x="112.417" y="-1228.8" font-family="Times,serif" font-size="14.00" fill="#000000">Fraud</text>
</g>
<!-- eWhoring -->
<g id="node24" class="node">
<title>eWhoring</title>
<ellipse fill="none" stroke="#000000" cx="112.417" cy="-1287" rx="49.802" ry="18"/>
<text text-anchor="middle" x="112.417" y="-1282.8" font-family="Times,serif" font-size="14.00" fill="#000000">eWhoring</text>
</g>
<!-- eBooks -->
<g id="node25" class="node">
<title>eBooks</title>
<ellipse fill="none" stroke="#000000" cx="112.417" cy="-261" rx="40.0089" ry="18"/>
<text text-anchor="middle" x="112.417" y="-256.8" font-family="Times,serif" font-size="14.00" fill="#000000">eBooks</text>
</g>
<!-- eBooks&#45;&gt;3 -->
<g id="edge10" class="edge">
<title>eBooks-&gt;3</title>
<path fill="none" stroke="#000000" d="M151.3279,-265.2188C196.7303,-270.1413 271.5642,-278.2549 318.5936,-283.3539"/>
<polygon fill="#000000" stroke="#000000" points="318.4433,-286.858 328.7623,-284.4563 319.1978,-279.8988 318.4433,-286.858"/>
</g>
<!-- Technical -->
<g id="node26" class="node">
<title>Technical</title>
<ellipse fill="none" stroke="#000000" cx="361.4465" cy="-234" rx="49.2144" ry="18"/>
<text text-anchor="middle" x="361.4465" y="-229.8" font-family="Times,serif" font-size="14.00" fill="#000000">Technical</text>
</g>
<!-- eBooks&#45;&gt;Technical -->
<g id="edge9" class="edge">
<title>eBooks-&gt;Technical</title>
<path fill="none" stroke="#000000" d="M151.3279,-256.7813C192.3651,-252.332 257.4465,-245.2758 304.3086,-240.1949"/>
<polygon fill="#000000" stroke="#000000" points="304.7487,-243.6678 314.3132,-239.1102 303.9942,-236.7086 304.7487,-243.6678"/>
</g>
<!-- Drugs -->
<g id="node27" class="node">
<title>Drugs</title>
<ellipse fill="none" stroke="#000000" cx="112.417" cy="-45" rx="34.7709" ry="18"/>
<text text-anchor="middle" x="112.417" y="-40.8" font-family="Times,serif" font-size="14.00" fill="#000000">Drugs</text>
</g>
<!-- Drugs&#45;&gt;1 -->
<g id="edge11" class="edge">
<title>Drugs-&gt;1</title>
<path fill="none" stroke="#000000" d="M146.5214,-48.6976C188.9291,-53.2955 261.694,-61.1847 310.669,-66.4947"/>
<polygon fill="#000000" stroke="#000000" points="310.4201,-69.9881 320.7391,-67.5865 311.1747,-63.0289 310.4201,-69.9881"/>
</g>
<!-- Production -->
<g id="node28" class="node">
<title>Production</title>
<ellipse fill="none" stroke="#000000" cx="361.4465" cy="-18" rx="53.3322" ry="18"/>
<text text-anchor="middle" x="361.4465" y="-13.8" font-family="Times,serif" font-size="14.00" fill="#000000">Production</text>
</g>
<!-- Drugs&#45;&gt;Production -->
<g id="edge12" class="edge">
<title>Drugs-&gt;Production</title>
<path fill="none" stroke="#000000" d="M146.5214,-41.3024C186.0688,-37.0146 252.0163,-29.8645 300.451,-24.6132"/>
<polygon fill="#000000" stroke="#000000" points="300.9404,-28.0807 310.5048,-23.5231 300.1858,-21.1215 300.9404,-28.0807"/>
</g>
<!-- Doxxing -->
<g id="node29" class="node">
<title>Doxxing</title>
<ellipse fill="none" stroke="#000000" cx="112.417" cy="-1341" rx="44.6684" ry="18"/>
<text text-anchor="middle" x="112.417" y="-1336.8" font-family="Times,serif" font-size="14.00" fill="#000000">Doxxing</text>
</g>
<!-- Digital Forensics -->
<g id="node30" class="node">
<title>Digital Forensics</title>
<ellipse fill="none" stroke="#000000" cx="112.417" cy="-1395" rx="77.0611" ry="18"/>
<text text-anchor="middle" x="112.417" y="-1390.8" font-family="Times,serif" font-size="14.00" fill="#000000">Digital Forensics</text>
</g>
<!-- Denial of Service -->
<g id="node31" class="node">
<title>Denial of Service</title>
<ellipse fill="none" stroke="#000000" cx="112.417" cy="-1449" rx="78.7086" ry="18"/>
<text text-anchor="middle" x="112.417" y="-1444.8" font-family="Times,serif" font-size="14.00" fill="#000000">Denial of Service</text>
</g>
<!-- Cryptocurrency -->
<g id="node32" class="node">
<title>Cryptocurrency</title>
<ellipse fill="none" stroke="#000000" cx="112.417" cy="-153" rx="71.7718" ry="18"/>
<text text-anchor="middle" x="112.417" y="-148.8" font-family="Times,serif" font-size="14.00" fill="#000000">Cryptocurrency</text>
</g>
<!-- Cryptocurrency&#45;&gt;2 -->
<g id="edge13" class="edge">
<title>Cryptocurrency-&gt;2</title>
<path fill="none" stroke="#000000" d="M178.4986,-160.1646C219.8558,-164.6486 272.336,-170.3386 310.4722,-174.4733"/>
<polygon fill="#000000" stroke="#000000" points="310.5081,-177.9976 320.8271,-175.596 311.2626,-171.0384 310.5081,-177.9976"/>
</g>
<!-- Trading -->
<g id="node33" class="node">
<title>Trading</title>
<ellipse fill="none" stroke="#000000" cx="361.4465" cy="-126" rx="41.7133" ry="18"/>
<text text-anchor="middle" x="361.4465" y="-121.8" font-family="Times,serif" font-size="14.00" fill="#000000">Trading</text>
</g>
<!-- Cryptocurrency&#45;&gt;Trading -->
<g id="edge14" class="edge">
<title>Cryptocurrency-&gt;Trading</title>
<path fill="none" stroke="#000000" d="M178.4986,-145.8354C219.8558,-141.3514 272.336,-135.6614 310.4722,-131.5267"/>
<polygon fill="#000000" stroke="#000000" points="311.2626,-134.9616 320.8271,-130.404 310.5081,-128.0024 311.2626,-134.9616"/>
</g>
<!-- Counterfeit Currency -->
<g id="node34" class="node">
<title>Counterfeit Currency</title>
<ellipse fill="none" stroke="#000000" cx="112.417" cy="-1503" rx="93.2183" ry="18"/>
<text text-anchor="middle" x="112.417" y="-1498.8" font-family="Times,serif" font-size="14.00" fill="#000000">Counterfeit Currency</text>
</g>
<!-- Clearing Criminal History -->
<g id="node35" class="node">
<title>Clearing Criminal History</title>
<ellipse fill="none" stroke="#000000" cx="112.417" cy="-1557" rx="112.3341" ry="18"/>
<text text-anchor="middle" x="112.417" y="-1552.8" font-family="Times,serif" font-size="14.00" fill="#000000">Clearing Criminal History</text>
</g>
<!-- Cashing Out -->
<g id="node36" class="node">
<title>Cashing Out</title>
<ellipse fill="none" stroke="#000000" cx="112.417" cy="-1611" rx="59.6718" ry="18"/>
<text text-anchor="middle" x="112.417" y="-1606.8" font-family="Times,serif" font-size="14.00" fill="#000000">Cashing Out</text>
</g>
<!-- Carding -->
<g id="node37" class="node">
<title>Carding</title>
<ellipse fill="none" stroke="#000000" cx="112.417" cy="-1665" rx="42.2952" ry="18"/>
<text text-anchor="middle" x="112.417" y="-1660.8" font-family="Times,serif" font-size="14.00" fill="#000000">Carding</text>
</g>
<!-- Anonymity -->
<g id="node38" class="node">
<title>Anonymity</title>
<ellipse fill="none" stroke="#000000" cx="112.417" cy="-423" rx="55.0594" ry="18"/>
<text text-anchor="middle" x="112.417" y="-418.8" font-family="Times,serif" font-size="14.00" fill="#000000">Anonymity</text>
</g>
<!-- Anonymity&#45;&gt;4 -->
<g id="edge15" class="edge">
<title>Anonymity-&gt;4</title>
<path fill="none" stroke="#000000" d="M147.8069,-436.8585C177.6916,-448.3236 221.741,-464.6683 260.8341,-477 280.4803,-483.1973 302.5624,-489.225 321.0233,-494.0072"/>
<polygon fill="#000000" stroke="#000000" points="320.3126,-497.4381 330.8683,-496.529 322.0496,-490.657 320.3126,-497.4381"/>
</g>
<!-- Tor -->
<g id="node39" class="node">
<title>Tor</title>
<ellipse fill="none" stroke="#000000" cx="361.4465" cy="-450" rx="27" ry="18"/>
<text text-anchor="middle" x="361.4465" y="-445.8" font-family="Times,serif" font-size="14.00" fill="#000000">Tor</text>
</g>
<!-- Anonymity&#45;&gt;Tor -->
<g id="edge16" class="edge">
<title>Anonymity-&gt;Tor</title>
<path fill="none" stroke="#000000" d="M164.9255,-428.693C212.8103,-433.8847 282.3424,-441.4235 324.5781,-446.0027"/>
<polygon fill="#000000" stroke="#000000" points="324.3791,-449.5015 334.6981,-447.0999 325.1337,-442.5423 324.3791,-449.5015"/>
</g>
<!-- VPN -->
<g id="node40" class="node">
<title>VPN</title>
<ellipse fill="none" stroke="#000000" cx="361.4465" cy="-396" rx="30.1958" ry="18"/>
<text text-anchor="middle" x="361.4465" y="-391.8" font-family="Times,serif" font-size="14.00" fill="#000000">VPN</text>
</g>
<!-- Anonymity&#45;&gt;VPN -->
<g id="edge17" class="edge">
<title>Anonymity-&gt;VPN</title>
<path fill="none" stroke="#000000" d="M164.9255,-417.307C211.5934,-412.2472 278.8224,-404.9582 321.3061,-400.3521"/>
<polygon fill="#000000" stroke="#000000" points="321.7203,-403.8278 331.2847,-399.2702 320.9657,-396.8685 321.7203,-403.8278"/>
</g>
<!-- Proxies -->
<g id="node41" class="node">
<title>Proxies</title>
<ellipse fill="none" stroke="#000000" cx="361.4465" cy="-342" rx="40.005" ry="18"/>
<text text-anchor="middle" x="361.4465" y="-337.8" font-family="Times,serif" font-size="14.00" fill="#000000">Proxies</text>
</g>
<!-- Anonymity&#45;&gt;Proxies -->
<g id="edge18" class="edge">
<title>Anonymity-&gt;Proxies</title>
<path fill="none" stroke="#000000" d="M147.8069,-409.1415C177.6916,-397.6764 221.741,-381.3317 260.8341,-369 278.8566,-363.3149 298.929,-357.7725 316.3753,-353.2034"/>
<polygon fill="#000000" stroke="#000000" points="317.5048,-356.5265 326.3086,-350.632 315.7505,-349.7498 317.5048,-356.5265"/>
</g>
</g>
</svg>